{"asset":{"version":"2.0","generator":"Unity 6000.5.3f1 glTFast 6.19.0"},"nodes":[{"name":"Object_5"},{"name":"Object_4","children":[0],"rotation":[0.7071068,0,0,0.7071068]},{"name":"Sun","children":[1],"rotation":[-3.774895E-08,0,0,1],"scale":[100,100,100]},{"name":"Earth_Surface.mat_0","mesh":0},{"name":"Earth","children":[3],"rotation":[8.146034E-08,0,0,1],"scale":[100,100,100]},{"name":"Object_9"},{"name":"Camera","children":[5],"translation":[748.113159,534.3665,650.764],"rotation":[0.210611388,-0.9052401,0.08928163,-0.3580671],"scale":[100,99.99999,99.99999]},{"name":"RootNode","children":[2,4,6]},{"name":"5ca68536b7fb477299398f5db4f219ae.fbx","children":[7],"rotation":[0.7071068,0,0,0.7071068]},{"name":"EarthVisual","children":[8],"translation":[-0.08956909,0,1.30749512],"rotation":[0.707106769,0,0,-0.7071067],"scale":[0.0005,0.0005000001,0.0005000001]}],"buffers":[{"uri":"EarthVisual.bin","byteLength":239192}],"bufferViews":[{"buffer":0,"byteLength":69120,"target":34963},{"buffer":0,"byteLength":121480,"byteOffset":69120,"byteStride":40,"target":34962},{"buffer":0,"byteLength":48592,"byteOffset":190600,"byteStride":16,"target":34962}],"accessors":[{"bufferView":1,"componentType":5126,"count":3037,"type":"VEC3","max":[42.41783,42.6776466,42.41783],"min":[-42.41783,-42.6776466,-42.41783]},{"bufferView":1,"componentType":5126,"count":3037,"type":"VEC3","byteOffset":12},{"bufferView":1,"componentType":5126,"count":3037,"type":"VEC4","byteOffset":24},{"bufferView":2,"componentType":5126,"count":3037,"type":"VEC2"},{"bufferView":2,"componentType":5126,"count":3037,"type":"VEC2","byteOffset":8},{"bufferView":0,"componentType":5125,"count":17280,"type":"SCALAR"}],"images":[{"name":"EarthVisual.jpg","uri":"EarthVisual.jpg","mimeType":"image/jpeg"},{"name":"EarthVisual.png","uri":"EarthVisual.png","mimeType":"image/png"}],"materials":[{"name":"Surface.mat","pbrMetallicRoughness":{"roughnessFactor":0.91,"baseColorTexture":{"index":0}},"normalTexture":{"index":1},"emissiveTexture":{"index":0},"emissiveFactor":[0.6,0.6,0.6],"doubleSided":true}],"meshes":[{"name":"Earth_Surface.mat_0","primitives":[{"attributes":{"POSITION":0,"NORMAL":1,"TANGENT":2,"TEXCOORD_0":3,"TEXCOORD_1":4},"indices":5,"material":0}]}],"scene":0,"scenes":[{"name":"EarthVisual","nodes":[9]}],"textures":[{"source":0},{"source":1}]}